<?xml version="1.0" standalone="no"?>
<!DOCTYPE svg PUBLIC "-//W3C//DTD SVG 20010904//EN"
 "http://www.w3.org/TR/2001/REC-SVG-20010904/DTD/svg10.dtd">
<svg version="1.0" xmlns="http://www.w3.org/2000/svg"
 width="124.000000pt" height="124.000000pt" viewBox="0 0 124.000000 124.000000"
 preserveAspectRatio="xMidYMid meet">
<metadata>
Created by potrace 1.14, written by Peter Selinger 2001-2017
</metadata>
<g transform="translate(0.000000,124.000000) scale(0.100000,-0.100000)"
fill="#000000" stroke="none">
<path d="M599 1126 c-3 -81 -4 -864 -1 -873 2 -7 18 -13 36 -13 l31 0 -1 448
c-1 246 -2 449 -3 452 0 3 -14 6 -31 6 -24 1 -30 -3 -31 -20z"/>
<path d="M450 493 l0 -369 33 4 33 4 -1 361 0 362 -32 3 -33 3 0 -368z"/>
<path d="M749 858 c-1 -2 -2 -166 -3 -365 -1 -389 -2 -381 48 -363 19 6 19 21
18 361 0 195 -1 357 -1 362 -1 6 -59 11 -62 5z"/>
<path d="M300 330 l0 -300 23 0 c12 0 27 4 33 8 8 5 11 97 11 300 l0 292 -33
0 -34 0 0 -300z"/>
<path d="M897 623 c-2 -5 -3 -138 -3 -298 l1 -290 34 0 33 0 0 280 c0 154 -1
288 -1 298 -1 12 -9 17 -30 17 -17 0 -32 -3 -34 -7z"/>
</g>
</svg>
